# xmcd
#
# Track frame offsets:
#	150
#	14720
#	27207
#	44355
#	57007
#	71454
#	84267
#	100169
#	116870
#	127921
#	139154
#	154805
#	167308
#	181077
#	190685
#	202852
#	215651
#	230835
#	241716
#	259450
#	269498
#	283754
#	297927
#	310214
#	322616
#
# Disc length: 4487 seconds
#
# Revision: 1
# Processed by: cddbd v1.5.2PL0 Copyright (c) Steve Scherf et al.
# Submitted via: audiograbber 1.83.01
#
DISCID=61118519
DTITLE=Aus Böhmen kommt die Musik - CD 1 - Vom Böhmerwald bis Oberkrain
DYEAR=1900
DGENRE=Polka
TTITLE0=Aus Böhmen kommt die Musik
TTITLE1=Rosen aus Böhmen
TTITLE2=Wenn die Böhmen feiern
TTITLE3=Böhmische Serenade
TTITLE4=Kolmplimente mit Musik
TTITLE5=Unter grünen Linden
TTITLE6=Das ist mein Leben
TTITLE7=Jugenderinnerungen
TTITLE8=Die Moldau-Musikanten spielen auf
TTITLE9=Sommerwind
TTITLE10=Egerländer Spezialitäten
TTITLE11=Bärenführer und Tanzbär
TTITLE12=Tanz doch mit mir
TTITLE13=Gablonzer Polka
TTITLE14=Volkstümliches Fest
TTITLE15=Marktfrauen-Polka
TTITLE16=Gemütlichkeit - Zufriedenheit
TTITLE17=Böhmische Dörfer
TTITLE18=Heimaterinnerungen
TTITLE19=Böhmerländer Polka
TTITLE20=Mein Haus ist dein Haus
TTITLE21=Das fröhliche Orchester
TTITLE22=Gruß aus Ölmütz
TTITLE23=Wenn es Abend wird
TTITLE24=Sag nicht Adieu
EXTD=Readers Digest Edition
EXTT0=
EXTT1=
EXTT2=
EXTT3=
EXTT4=
EXTT5=
EXTT6=
EXTT7=
EXTT8=
EXTT9=
EXTT10=
EXTT11=
EXTT12=
EXTT13=
EXTT14=
EXTT15=
EXTT16=
EXTT17=
EXTT18=
EXTT19=
EXTT20=
EXTT21=
EXTT22=
EXTT23=
EXTT24=
PLAYORDER=
